<svg width="298" height="298" viewBox="0 0 298 298" fill="none" xmlns="http://www.w3.org/2000/svg">
<path d="M15.279 29.66C23.4694 29.66 30.109 23.0204 30.109 14.83C30.109 6.63962 23.4694 0 15.279 0C7.08862 0 0.449005 6.63962 0.449005 14.83C0.449005 23.0204 7.08862 29.66 15.279 29.66Z" fill="black"/>
<path d="M59.32 74.599C67.5104 74.599 74.15 67.9594 74.15 59.769C74.15 51.5786 67.5104 44.939 59.32 44.939C51.1296 44.939 44.49 51.5786 44.49 59.769C44.49 67.9594 51.1296 74.599 59.32 74.599Z" fill="black"/>
<path d="M59.32 29.66C67.5104 29.66 74.15 23.0204 74.15 14.83C74.15 6.63962 67.5104 0 59.32 0C51.1296 0 44.49 6.63962 44.49 14.83C44.49 23.0204 51.1296 29.66 59.32 29.66Z" fill="black"/>
<path d="M104.261 74.599C112.451 74.599 119.091 67.9594 119.091 59.769C119.091 51.5786 112.451 44.939 104.261 44.939C96.0706 44.939 89.431 51.5786 89.431 59.769C89.431 67.9594 96.0706 74.599 104.261 74.599Z" fill="black"/>
<path d="M104.261 118.64C112.451 118.64 119.091 112 119.091 103.81C119.091 95.6196 112.451 88.98 104.261 88.98C96.0706 88.98 89.431 95.6196 89.431 103.81C89.431 112 96.0706 118.64 104.261 118.64Z" fill="black"/>
<path d="M104.261 29.66C112.451 29.66 119.091 23.0204 119.091 14.83C119.091 6.63962 112.451 0 104.261 0C96.0706 0 89.431 6.63962 89.431 14.83C89.431 23.0204 96.0706 29.66 104.261 29.66Z" fill="black"/>
<path d="M148.302 74.599C156.492 74.599 163.132 67.9594 163.132 59.769C163.132 51.5786 156.492 44.939 148.302 44.939C140.112 44.939 133.472 51.5786 133.472 59.769C133.472 67.9594 140.112 74.599 148.302 74.599Z" fill="black"/>
<path d="M148.302 118.64C156.492 118.64 163.132 112 163.132 103.81C163.132 95.6196 156.492 88.98 148.302 88.98C140.112 88.98 133.472 95.6196 133.472 103.81C133.472 112 140.112 118.64 148.302 118.64Z" fill="black"/>
<path d="M148.302 29.66C156.492 29.66 163.132 23.0204 163.132 14.83C163.132 6.63962 156.492 0 148.302 0C140.112 0 133.472 6.63962 133.472 14.83C133.472 23.0204 140.112 29.66 148.302 29.66Z" fill="black"/>
<path d="M192.343 74.599C200.533 74.599 207.173 67.9594 207.173 59.769C207.173 51.5786 200.533 44.939 192.343 44.939C184.153 44.939 177.513 51.5786 177.513 59.769C177.513 67.9594 184.153 74.599 192.343 74.599Z" fill="black"/>
<path d="M192.343 118.64C200.533 118.64 207.173 112 207.173 103.81C207.173 95.6196 200.533 88.98 192.343 88.98C184.153 88.98 177.513 95.6196 177.513 103.81C177.513 112 184.153 118.64 192.343 118.64Z" fill="black"/>
<path d="M148.302 162.682C156.492 162.682 163.132 156.042 163.132 147.852C163.132 139.662 156.492 133.022 148.302 133.022C140.112 133.022 133.472 139.662 133.472 147.852C133.472 156.042 140.112 162.682 148.302 162.682Z" fill="black"/>
<path d="M192.343 162.682C200.533 162.682 207.173 156.042 207.173 147.852C207.173 139.662 200.533 133.022 192.343 133.022C184.153 133.022 177.513 139.662 177.513 147.852C177.513 156.042 184.153 162.682 192.343 162.682Z" fill="black"/>
<path d="M104.261 207.621C112.452 207.621 119.092 200.981 119.092 192.79C119.092 184.599 112.452 177.959 104.261 177.959C96.0701 177.959 89.43 184.599 89.43 192.79C89.43 200.981 96.0701 207.621 104.261 207.621Z" fill="black"/>
<path d="M148.302 207.621C156.493 207.621 163.133 200.981 163.133 192.79C163.133 184.599 156.493 177.959 148.302 177.959C140.111 177.959 133.471 184.599 133.471 192.79C133.471 200.981 140.111 207.621 148.302 207.621Z" fill="black"/>
<path d="M192.343 207.621C200.534 207.621 207.174 200.981 207.174 192.79C207.174 184.599 200.534 177.959 192.343 177.959C184.152 177.959 177.512 184.599 177.512 192.79C177.512 200.981 184.152 207.621 192.343 207.621Z" fill="black"/>
<path d="M59.32 251.717C67.5104 251.717 74.15 245.077 74.15 236.887C74.15 228.697 67.5104 222.057 59.32 222.057C51.1296 222.057 44.49 228.697 44.49 236.887C44.49 245.077 51.1296 251.717 59.32 251.717Z" fill="black"/>
<path d="M104.261 251.717C112.451 251.717 119.091 245.077 119.091 236.887C119.091 228.697 112.451 222.057 104.261 222.057C96.0706 222.057 89.431 228.697 89.431 236.887C89.431 245.077 96.0706 251.717 104.261 251.717Z" fill="black"/>
<path d="M148.302 251.717C156.492 251.717 163.132 245.077 163.132 236.887C163.132 228.697 156.492 222.057 148.302 222.057C140.112 222.057 133.472 228.697 133.472 236.887C133.472 245.077 140.112 251.717 148.302 251.717Z" fill="black"/>
<path d="M192.343 251.717C200.533 251.717 207.173 245.077 207.173 236.887C207.173 228.697 200.533 222.057 192.343 222.057C184.153 222.057 177.513 228.697 177.513 236.887C177.513 245.077 184.153 251.717 192.343 251.717Z" fill="black"/>
<path d="M238.238 118.64C246.428 118.64 253.068 112 253.068 103.81C253.068 95.6196 246.428 88.98 238.238 88.98C230.048 88.98 223.408 95.6196 223.408 103.81C223.408 112 230.048 118.64 238.238 118.64Z" fill="black"/>
<path d="M238.238 162.682C246.428 162.682 253.068 156.042 253.068 147.852C253.068 139.662 246.428 133.022 238.238 133.022C230.048 133.022 223.408 139.662 223.408 147.852C223.408 156.042 230.048 162.682 238.238 162.682Z" fill="black"/>
<path d="M238.238 207.621C246.429 207.621 253.069 200.981 253.069 192.79C253.069 184.599 246.429 177.959 238.238 177.959C230.047 177.959 223.407 184.599 223.407 192.79C223.407 200.981 230.047 207.621 238.238 207.621Z" fill="black"/>
<path d="M15.279 297.613C23.4699 297.613 30.11 290.973 30.11 282.782C30.11 274.591 23.4699 267.951 15.279 267.951C7.08806 267.951 0.447998 274.591 0.447998 282.782C0.447998 290.973 7.08806 297.613 15.279 297.613Z" fill="black"/>
<path d="M59.32 297.613C67.511 297.613 74.151 290.973 74.151 282.782C74.151 274.591 67.511 267.951 59.32 267.951C51.1291 267.951 44.489 274.591 44.489 282.782C44.489 290.973 51.1291 297.613 59.32 297.613Z" fill="black"/>
<path d="M104.261 297.613C112.452 297.613 119.092 290.973 119.092 282.782C119.092 274.591 112.452 267.951 104.261 267.951C96.0701 267.951 89.43 274.591 89.43 282.782C89.43 290.973 96.0701 297.613 104.261 297.613Z" fill="black"/>
<path d="M148.302 297.613C156.493 297.613 163.133 290.973 163.133 282.782C163.133 274.591 156.493 267.951 148.302 267.951C140.111 267.951 133.471 274.591 133.471 282.782C133.471 290.973 140.111 297.613 148.302 297.613Z" fill="black"/>
<path d="M282.334 162.682C290.524 162.682 297.164 156.042 297.164 147.852C297.164 139.662 290.524 133.022 282.334 133.022C274.144 133.022 267.504 139.662 267.504 147.852C267.504 156.042 274.144 162.682 282.334 162.682Z" fill="black"/>
</svg>
